<svg xmlns="http://www.w3.org/2000/svg" viewBox="0 0 41.86 55.81"><defs><style>.cls-1{fill:#fff;}</style></defs><title>account-icon_2</title><g id="Capa_2" data-name="Capa 2"><g id="Layer_1" data-name="Layer 1"><path class="cls-1" d="M38.37,24.42H34.88V14A13.95,13.95,0,0,0,7,14V24.42H3.49A3.5,3.5,0,0,0,0,27.9V52.32a3.5,3.5,0,0,0,3.49,3.49H38.37a3.51,3.51,0,0,0,3.49-3.49V27.9A3.5,3.5,0,0,0,38.37,24.42ZM20.93,45.34a3.49,3.49,0,1,1,3.49-3.48A3.48,3.48,0,0,1,20.93,45.34Zm7-20.92H14V14a7,7,0,0,1,14,0Z"/></g></g></svg>