<svg xmlns="http://www.w3.org/2000/svg" viewBox="0 0 471.15 255.95"><defs><style>.cls-1{fill:#002b45;}</style></defs><title>close-eye-icon</title><g id="Capa_2" data-name="Capa 2"><g id="Layer_2" data-name="Layer 2"><path class="cls-1" d="M395,63.53l50.45,24.76,14.28,7c3.59,1.76,8.44,1.09,10.46-2.74,1.82-3.44,1.09-8.58-2.74-10.46L417,57.34l-14.28-7c-3.59-1.76-8.44-1.09-10.46,2.74-1.82,3.44-1.09,8.58,2.74,10.46Z"/><path class="cls-1" d="M331.56,203.61q-8.94-29.12-17.86-58.23-2.56-8.34-5.12-16.7c-1.18-3.82-5.4-6.63-9.41-5.34-3.85,1.25-6.59,5.31-5.34,9.41q8.93,29.1,17.86,58.22,2.56,8.34,5.12,16.7c1.17,3.82,5.4,6.64,9.41,5.34,3.85-1.25,6.59-5.31,5.34-9.4Z"/><path class="cls-1" d="M151.84,210.67q6.24-28.39,14.15-56.37,2.23-7.89,4.61-15.76c1.15-3.83-1.38-8.5-5.34-9.4a7.81,7.81,0,0,0-9.41,5.34q-8.37,27.81-15.09,56.1-1.9,8-3.67,16c-.85,3.9,1.17,8.46,5.34,9.41,3.87.88,8.49-1.17,9.41-5.34Z"/><path class="cls-1" d="M9.73,101.29A308.55,308.55,0,0,0,58.52,80.08Q65,76.54,71.38,72.69c3.42-2.08,5-7,2.74-10.46s-6.8-5-10.46-2.74a301.26,301.26,0,0,1-39.11,20l1.83-.77Q16.17,83,5.67,86.55C1.88,87.82-1,91.87.33,96c1.21,3.76,5.34,6.7,9.4,5.33Z"/><path class="cls-1" d="M349,118c18.74,19.62,36.54,40.14,54.56,60.41l15.56,17.49a11.82,11.82,0,0,0,20.17-8.35,13,13,0,0,0-3.46-8.35c-18.11-20.37-36.08-40.87-54.42-61q-7.76-8.52-15.7-16.88a11.82,11.82,0,0,0-16.71,0,11.94,11.94,0,0,0-3.46,8.36A12.56,12.56,0,0,0,349,118Z"/><path class="cls-1" d="M56.85,202.64a124.24,124.24,0,0,0,13.72-16c3.86-5.17,7.55-10.48,11.2-15.8q11-16.08,21.24-32.73,5.79-9.44,11.29-19.06a12.29,12.29,0,0,0,1.19-9.1,12.05,12.05,0,0,0-5.43-7.06c-5.62-3-12.88-1.49-16.16,4.24Q77.69,135.38,59.08,162.2c-3.44,4.94-6.89,9.88-10.57,14.65.62-.8,1.24-1.59,1.85-2.39a99.34,99.34,0,0,1-10.22,11.48,11.81,11.81,0,0,0,16.71,16.7Z"/><path class="cls-1" d="M228.93,146.12q.56,38.19,1.1,76.37l.32,21.64a12.18,12.18,0,0,0,3.46,8.35,12,12,0,0,0,8.35,3.46c6.32-.28,11.91-5.19,11.81-11.81l-1.1-76.37q-.17-10.81-.31-21.64a12.29,12.29,0,0,0-3.46-8.35,12,12,0,0,0-8.36-3.46c-6.32.28-11.91,5.19-11.81,11.81Z"/><path class="cls-1" d="M40.64,15c1.56,11,5.68,21.66,10.2,31.78A182.14,182.14,0,0,0,74.56,85.15a176.58,176.58,0,0,0,38.62,35.95,172.29,172.29,0,0,0,55.16,24.78c23.78,6,48.81,7.07,73.22,5.85,21.79-1.08,43.71-4.37,64.51-11.08a186.7,186.7,0,0,0,48-23.08,171.71,171.71,0,0,0,34.33-30.69,189.44,189.44,0,0,0,22.8-33.53,230.07,230.07,0,0,0,13.85-32c.73-2.1,1.44-4.22,2.12-6.34C429.07,9.07,425,1.81,418.94.43A12.08,12.08,0,0,0,404.4,8.68q-3.18,10-7.23,19.67c.39-.94.79-1.88,1.19-2.82a190.75,190.75,0,0,1-17.24,32.11q-3.15,4.7-6.6,9.17c.62-.8,1.23-1.6,1.85-2.39a162.31,162.31,0,0,1-29,29.08l2.39-1.84a169.11,169.11,0,0,1-37.21,21.62l2.82-1.19A212.75,212.75,0,0,1,261,126.49l3.14-.42A307.51,307.51,0,0,1,207.37,128q-7.85-.42-15.64-1.43l3.14.42A172.68,172.68,0,0,1,151,115.19l2.82,1.2A162.33,162.33,0,0,1,118,95.51l2.39,1.85A169.52,169.52,0,0,1,90.13,67c.62.8,1.23,1.6,1.85,2.39A172.53,172.53,0,0,1,73.67,40Q71.73,36.06,70,32c.4.95.79,1.89,1.19,2.83-3.53-8.37-6.52-17.15-7.8-26.17C63,6,60.24,2.94,58,1.62A12.06,12.06,0,0,0,48.89.43a11.93,11.93,0,0,0-7.06,5.43c-.4.94-.8,1.88-1.19,2.82a11.75,11.75,0,0,0,0,6.28Z"/></g></g></svg>