<svg xmlns="http://www.w3.org/2000/svg" viewBox="0 0 1420.27 1443.01"><defs><style>.cls-1,.cls-6{fill:#fff;}.cls-1,.cls-10,.cls-11,.cls-12,.cls-13,.cls-2,.cls-3,.cls-5,.cls-6,.cls-7,.cls-8,.cls-9{stroke:#002b45;}.cls-1,.cls-10,.cls-11,.cls-12,.cls-13,.cls-2,.cls-3,.cls-6,.cls-7,.cls-8,.cls-9{stroke-linecap:round;stroke-linejoin:round;}.cls-1,.cls-2,.cls-3{stroke-width:11.84px;}.cls-10,.cls-11,.cls-12,.cls-13,.cls-2,.cls-3,.cls-5,.cls-9{fill:none;}.cls-3{stroke-dasharray:59.18;}.cls-4,.cls-7{fill:#f1f4f4;}.cls-5{stroke-miterlimit:10;}.cls-6,.cls-7,.cls-8{stroke-width:11.76px;}.cls-8{fill:#ff0049;}.cls-10,.cls-11,.cls-12,.cls-13,.cls-9{stroke-width:13.12px;}.cls-10{stroke-dasharray:53.3 53.3;}.cls-11{stroke-dasharray:47.73 47.73;}.cls-12{stroke-dasharray:47.68 47.68;}.cls-13{stroke-dasharray:47.55 47.55;}</style></defs><title>openbank-bienvenido</title><g id="Capa_2" data-name="Capa 2"><g id="_ÎÓÈ_1" data-name="—ÎÓÈ_1"><path class="cls-1" d="M864.16,72.09,718.91,6.24a3.61,3.61,0,0,0-5.09,3.29V141.22a3.6,3.6,0,0,0,5.09,3.28L864.16,78.65A3.6,3.6,0,0,0,864.16,72.09Z"/><path class="cls-2" d="M47.66,922.82C78,1025.16,132,1122.65,209.9,1206.73c132.64,143.25,309.42,220.45,488,229.47s358.95-50.17,498.8-179.67S1409.39,951.73,1414.11,773s-58.69-360.92-191.33-504.17c-85.48-92.31-197.49-157-306.27-193.83"/><path class="cls-3" d="M643.36,74.71c-125.66-1.7-239.7,42-338.13,108.76C147.74,290.27,5.92,442.43,5.92,717.1"/><circle class="cls-4" cx="715.08" cy="764.58" r="352.78" transform="translate(-331.2 729.58) rotate(-45)"/><circle class="cls-5" cx="715.08" cy="764.58" r="352.78" transform="translate(-331.2 729.58) rotate(-45)"/><circle class="cls-6" cx="689.94" cy="1035.81" r="139.24"/><path class="cls-7" d="M866,1168.28l34-65a8.44,8.44,0,0,0-3.62-11.43l-34.55-17.74a8.07,8.07,0,0,1-4.31-8.52,166.48,166.48,0,0,0,2.54-28.59,8.29,8.29,0,0,1,5.75-7.94L903,1017.31a8.49,8.49,0,0,0,5.58-10.65L886.42,937a8.51,8.51,0,0,0-10.7-5.5l-37.16,11.76a8.2,8.2,0,0,1-9.18-3,166,166,0,0,0-18.64-22,8.08,8.08,0,0,1-1.42-9.48l18-34.37a8.44,8.44,0,0,0-3.62-11.43L758.4,829.38A8.57,8.57,0,0,0,746.88,833l-18,34.36a8.19,8.19,0,0,1-8.59,4.33,169.53,169.53,0,0,0-28.79-2.42,8.23,8.23,0,0,1-8-5.68l-11.7-36.86a8.52,8.52,0,0,0-10.71-5.5l-70.22,22.23a8.5,8.5,0,0,0-5.58,10.66L597,891a8.09,8.09,0,0,1-3,9.09,167.91,167.91,0,0,0-22.3,18.65,8.22,8.22,0,0,1-9.54,1.44l-34.55-17.75a8.57,8.57,0,0,0-11.51,3.65l-34,65a8.43,8.43,0,0,0,3.62,11.42l34.55,17.75a8,8,0,0,1,4.31,8.51,166.59,166.59,0,0,0-2.54,28.6,8.27,8.27,0,0,1-5.75,7.94l-37.15,11.76a8.5,8.5,0,0,0-5.58,10.66l22.12,69.67a8.51,8.51,0,0,0,10.7,5.5l37.16-11.77a8.21,8.21,0,0,1,9.18,3.05,165.29,165.29,0,0,0,18.64,22,8.08,8.08,0,0,1,1.42,9.48l-18,34.38a8.45,8.45,0,0,0,3.62,11.43L623.7,1245a8.58,8.58,0,0,0,11.52-3.65l18-34.36a8.19,8.19,0,0,1,8.58-4.34,168.51,168.51,0,0,0,28.79,2.42,8.26,8.26,0,0,1,8,5.68l9.49,24c1.21,2.76,2.89,6.67,4.4,10.17a9,9,0,0,0,11.63,4.82l63-22.36c13-4.1,8.93-9.54,4.85-22.4l-6.88-21.67a8.09,8.09,0,0,1,3-9.08,169.45,169.45,0,0,0,22.3-18.65,8.21,8.21,0,0,1,9.54-1.44l34.55,17.75A8.57,8.57,0,0,0,866,1168.28Zm-218.36-.92c-92.26-29.78-127-139.1-68.74-216.53C614.15,903.94,677.29,884,733.15,902c92.26,29.79,127,139.1,68.75,216.53C766.64,1165.41,703.5,1185.4,647.63,1167.36Z"/><path class="cls-6" d="M793.31,1128.65a26.71,26.71,0,0,0-16.33-12c-13.78-3.5-35.83-6.17-48.19-9.72a15.31,15.31,0,0,1-11.09-14.71v-11.67a5.16,5.16,0,0,1,2-4c7.47-6.11,13.23-15.46,16.62-24.47a30.32,30.32,0,0,0,1.69-6s6,0,6.92-5.52c2.71-17,4.66-17.76,4.66-25.23s-2.73-9.25-6-7.32a44.87,44.87,0,0,0,1.67-11.47c.75-34.39-25-55.07-55.61-55.07s-55.82,21.4-55.61,55.07a41.35,41.35,0,0,0,1.68,11.47c-3.29-1.93-6-.15-6,7.32s2,8.21,4.65,25.23c.89,5.57,6.93,5.52,6.93,5.52.11.76.24,1.51.38,2.26,2,10.4,7.72,21.59,16,28.23a5.25,5.25,0,0,1,2,4.06v11.6a15.27,15.27,0,0,1-11,14.69c-12.36,3.56-31.28,7.25-45.1,10.75a26.83,26.83,0,0,0-14.88,9.91s38.27,47.13,97.8,46.36S793.31,1128.65,793.31,1128.65Z"/><path class="cls-6" d="M652.41,1071.39c20.07,20.07,52.51,18.85,70.83,1.71"/><path class="cls-6" d="M745.82,1010l2.35-24.75A48.43,48.43,0,0,0,726,939.57a46.27,46.27,0,0,0-4.14-2.27c-22.09-11-48.23-7.75-48.23-7.75a24.55,24.55,0,0,0-18.82,10.58l-4.42,6.52h0c-11.39,2-19.46,11.85-18.91,23l4.18,38.33,9.8-21.32a10.69,10.69,0,0,1,2-2.09,48.11,48.11,0,0,0,12.35-15.41l2.22-4.49,3.64,1.64c16.8,7.52,35.43,9.76,53.86,7.9,3-.3,5.31.26,5.86,2.4C735,1014,745.82,1010,745.82,1010Z"/><path class="cls-6" d="M652.72,1105,678,1116.76a27.54,27.54,0,0,0,23.69-.23l23.22-11.36"/><rect class="cls-6" x="664" y="387.87" width="482.04" height="373.87"/><polyline class="cls-6" points="713.69 702.47 777.87 641.06 844.93 645.94 897.03 566.37 963.99 439.39"/><path class="cls-6" d="M947.93,826.9c-36.7-48.57-59.68-128.1-59.68-128.1a24.06,24.06,0,0,1,11.29-31.64,23.06,23.06,0,0,1,30.94,11.49l29.21,64.13h0l.13-167.49c0-13.15,10.44-23.81,23.3-23.82a23.51,23.51,0,0,1,23.27,23.78L1006.31,688V676.1c0-13.15,10.44-23.82,23.3-23.83a23.52,23.52,0,0,1,23.27,23.79v4.76c0-13.15,10.44-23.81,23.3-23.82a23.5,23.5,0,0,1,23.27,23.78v4.76a23.3,23.3,0,1,1,46.58,0l-.06,70.9c0,62.64-49.76,113.45-111,113.5a108.53,108.53,0,0,1-60.45-18.26,112.16,112.16,0,0,1-26.56-24.75"/><line class="cls-6" x1="1052.89" y1="680.34" x2="1052.88" y2="692.24"/><line class="cls-6" x1="1099.46" y1="685.06" x2="1099.46" y2="692.2"/><line class="cls-6" x1="726.19" y1="437.85" x2="867.52" y2="437.85"/><line class="cls-6" x1="726.19" y1="474.65" x2="867.52" y2="474.65"/><line class="cls-6" x1="726.19" y1="511.45" x2="867.52" y2="511.45"/><rect class="cls-7" x="1031.26" y="439.39" width="77.27" height="55.56"/><rect class="cls-7" x="1031.26" y="535.07" width="77.27" height="55.56"/><circle class="cls-8" cx="711.31" cy="702.47" r="17.4" transform="translate(-288.38 708.72) rotate(-45)"/><circle class="cls-8" cx="774.23" cy="640.33" r="17.4" transform="translate(-113.64 1110.58) rotate(-67.5)"/><circle class="cls-8" cx="838.84" cy="646.36" r="17.4" transform="translate(-126.06 210.02) rotate(-13.28)"/><circle class="cls-8" cx="896.85" cy="568.09" r="17.4" transform="translate(-139.02 800.56) rotate(-45)"/><circle class="cls-8" cx="958.78" cy="447.9" r="17.4" transform="translate(-77.26 232.26) rotate(-13.28)"/><path class="cls-6" d="M477.65,639.27l-5.84,53a8.93,8.93,0,0,1-11.6,5.52l-13-4.9L441.3,713.4l-18.52,13,8.86,29.51-15.88,10.89,4.41,21.58-25.76,14,8.18,24.85-24.51,18.91,8.21,26.14-24.42,17.29L368.28,907a8.13,8.13,0,0,1-3.88,10l-66.92,34.8-9.63-67.74a22.64,22.64,0,0,1,1.2-11.09l99.32-266.15a2.86,2.86,0,0,0-.68-3.05A123,123,0,0,1,357,553.74c-17.42-54.09,5.25-114,54.17-143a123,123,0,1,1,66.5,228.5"/><line class="cls-6" x1="514.35" y1="400.19" x2="481.81" y2="487.39"/><line class="cls-6" x1="297.43" y1="939.11" x2="417.37" y2="617.7"/><polyline class="cls-6" points="560.07 429.24 535.92 495.41 552.74 502.39 529.04 564.01"/><circle class="cls-8" cx="530.41" cy="561.57" r="13.71" transform="translate(-176.99 871.88) rotate(-70.32)"/><polyline class="cls-6" points="461.07 395.7 435.97 461.51 418.69 455.77 396.23 517.85"/><path class="cls-8" d="M383.47,511.9a13.71,13.71,0,1,1,10.1,16.54A13.7,13.7,0,0,1,383.47,511.9Z"/><circle class="cls-8" cx="481.81" cy="487.39" r="13.71" transform="translate(-98.86 123.37) rotate(-13.25)"/><path class="cls-9" d="M503.25,347.76q11.67-5.94,23.7-11.25"/><path class="cls-10" d="M576.85,317.86a469.88,469.88,0,0,1,288.39,3.88"/><path class="cls-9" d="M890.22,331q12.21,4.92,24,10.5"/><path class="cls-9" d="M255,848.27q-2.34-12.87-4-25.94"/><path class="cls-11" d="M247.64,774.74a472.17,472.17,0,0,1,25.92-164.16"/><path class="cls-9" d="M282,588.25q4.95-12.19,10.57-24"/><path class="cls-9" d="M441.7,1143.92q-10.65-7.7-20.83-16"/><path class="cls-12" d="M385.43,1096.1A470.13,470.13,0,0,1,338.77,1042"/><path class="cls-9" d="M325.11,1022.44q-7.25-10.94-13.87-22.27"/><path class="cls-9" d="M1180.1,812.71q-1.36,13.14-3.42,26"/><path class="cls-13" d="M1166.82,885.23c-31.57,118.8-108,217.34-208.54,278.65"/><path class="cls-9" d="M937.67,1175.75q-11.52,6.24-23.41,11.86"/></g></g></svg>