<svg xmlns="http://www.w3.org/2000/svg" viewBox="0 0 196.21 130.69"><defs><style>.cls-1,.cls-3{fill:#002b45;}.cls-2{fill:#ff0049;}.cls-3{font-size:18px;font-family:Montserrat-Black, Montserrat;font-weight:800;letter-spacing:0.1em;}.cls-4{letter-spacing:0.08em;}.cls-5{letter-spacing:0.11em;}.cls-6{letter-spacing:0.1em;}</style></defs><title>tranquility-lane-logo</title><g id="Capa_2" data-name="Capa 2"><g id="OBJECTS"><path class="cls-1" d="M126.63,0H70.1A15.29,15.29,0,0,0,54.85,15.25V52.34c0,17.64,24.68,15.23,24.68,15.23a5.72,5.72,0,0,1-5.27-5.41v-39a4.89,4.89,0,0,1,4.88-4.88H117.6c15.78,0,24.28,12.35,24.28,12.35V15.25A15.29,15.29,0,0,0,126.63,0Z"/><path class="cls-2" d="M70.18,85.19h56.53A15.3,15.3,0,0,0,142,69.94V37.4a29.43,29.43,0,0,0-22.51-15.33,4.88,4.88,0,0,1,3.11,4.54V62.08c0,2.68-2.2,5.48-4.88,5.48H87.28S54.93,69.9,54.93,52.25V69.94A15.3,15.3,0,0,0,70.18,85.19Z"/><text class="cls-3" transform="translate(0 125.83) scale(0.9 1)">TRANQUILI<tspan class="cls-4" x="123.44" y="0">T</tspan><tspan x="136.65" y="0">Y </tspan><tspan class="cls-5" x="158.43" y="0">L</tspan><tspan class="cls-6" x="171.52" y="0">ANE</tspan></text></g></g></svg>